<svg xmlns="http://www.w3.org/2000/svg" width="44" height="39" fill="none"><g fill="#ECD979" clip-path="url(#a)"><path d="M43.9409 38.9565h-1.3723v-1.3913h1.3723v1.3913Z"/><path d="M42.5686 38.9565h-1.3723v-1.3913h1.3723v1.3913ZM37.0794 38.9565H35.707v-1.3913h1.3724v1.3913ZM35.707 38.9565h-1.3723v-1.3913h1.3723v1.3913ZM34.3347 38.9565h-1.3723v-1.3913h1.3723v1.3913ZM26.1008 38.9565h-1.3723v-1.3913h1.3723v1.3913ZM17.8672 38.9565h-1.3723v-1.3913h1.3723v1.3913ZM9.63331 38.9565H8.26099v-1.3913h1.37232v1.3913ZM8.26099 38.9565H6.88867v-1.3913h1.37232v1.3913Z"/><path d="M6.88868 38.9565H5.51636v-1.3913h1.37232v1.3913ZM1.39942 38.9565H.0270996v-1.3913H1.39942v1.3913ZM43.9409 37.5652h-1.3723v-1.3913h1.3723v1.3913ZM38.4517 37.5652h-1.3724v-1.3913h1.3724v1.3913Z"/><path d="M37.0794 37.5652H35.707v-1.3913h1.3724v1.3913ZM35.707 37.5652h-1.3723v-1.3913h1.3723v1.3913ZM26.1008 37.5652h-1.3723v-1.3913h1.3723v1.3913ZM24.7285 37.5652h-1.3723v-1.3913h1.3723v1.3913ZM19.2395 37.5652h-1.3723v-1.3913h1.3723v1.3913ZM17.8672 37.5652h-1.3723v-1.3913h1.3723v1.3913ZM8.26099 37.5652H6.88867v-1.3913h1.37232v1.3913Z"/><path d="M6.88868 37.5652H5.51636v-1.3913h1.37232v1.3913Z"/><path d="M5.51636 37.5652H4.14404v-1.3913h1.37232v1.3913ZM39.824 36.1739h-1.3723v-1.3913h1.3723v1.3913Z"/><path d="M38.4517 36.1739h-1.3724v-1.3913h1.3724v1.3913Z"/><path d="M37.0794 36.1739H35.707v-1.3913h1.3724v1.3913ZM26.1008 36.1739h-1.3723v-1.3913h1.3723v1.3913ZM24.7285 36.1739h-1.3723v-1.3913h1.3723v1.3913ZM23.3562 36.1739h-1.3723v-1.3913h1.3723v1.3913ZM20.6118 36.1739h-1.3723v-1.3913h1.3723v1.3913ZM19.2395 36.1739h-1.3723v-1.3913h1.3723v1.3913ZM17.8672 36.1739h-1.3723v-1.3913h1.3723v1.3913ZM6.88868 36.1739H5.51636v-1.3913h1.37232v1.3913Z"/><path d="M5.51636 36.1739H4.14404v-1.3913h1.37232v1.3913Z"/><path d="M4.14405 36.1739H2.77173v-1.3913h1.37232v1.3913ZM41.1963 34.7826H39.824v-1.3913h1.3723v1.3913ZM39.824 34.7826h-1.3723v-1.3913h1.3723v1.3913Z"/><path d="M38.4517 34.7826h-1.3724v-1.3913h1.3724v1.3913ZM31.5901 34.7826h-1.3723v-1.3913h1.3723v1.3913ZM30.2178 34.7826h-1.3723v-1.3913h1.3723v1.3913ZM28.8455 34.7826h-1.3724v-1.3913h1.3724v1.3913ZM24.7285 34.7826h-1.3723v-1.3913h1.3723v1.3913ZM23.3562 34.7826h-1.3723v-1.3913h1.3723v1.3913ZM20.6118 34.7826h-1.3723v-1.3913h1.3723v1.3913ZM19.2395 34.7826h-1.3723v-1.3913h1.3723v1.3913ZM15.1226 34.7826h-1.3724v-1.3913h1.3724v1.3913ZM13.7502 34.7826h-1.3723v-1.3913h1.3723v1.3913ZM12.3779 34.7826h-1.3723v-1.3913h1.3723v1.3913ZM5.51636 34.7826H4.14404v-1.3913h1.37232v1.3913Z"/><path d="M4.14405 34.7826H2.77173v-1.3913h1.37232v1.3913ZM2.77173 34.7826H1.39941v-1.3913h1.37232v1.3913ZM42.5686 33.3913h-1.3723V32h1.3723v1.3913ZM41.1963 33.3913H39.824V32h1.3723v1.3913ZM39.824 33.3913h-1.3723V32h1.3723v1.3913ZM30.2178 33.3913h-1.3723V32h1.3723v1.3913ZM28.8455 33.3913h-1.3724V32h1.3724v1.3913ZM27.4731 33.3913h-1.3723V32h1.3723v1.3913ZM23.3562 33.3913h-1.3723V32h1.3723v1.3913ZM20.6118 33.3913h-1.3723V32h1.3723v1.3913ZM16.4949 33.3913h-1.3723V32h1.3723v1.3913ZM15.1226 33.3913h-1.3724V32h1.3724v1.3913ZM13.7502 33.3913h-1.3723V32h1.3723v1.3913ZM4.14405 33.3913H2.77173V32h1.37232v1.3913ZM2.77173 33.3913H1.39941V32h1.37232v1.3913Z"/><path d="M1.39942 33.3913H.0270996V32H1.39942v1.3913ZM42.5686 32h-1.3723v-1.3913h1.3723V32ZM41.1963 32H39.824v-1.3913h1.3723V32ZM28.8455 32h-1.3724v-1.3913h1.3724V32ZM27.4731 32h-1.3723v-1.3913h1.3723V32ZM26.1008 32h-1.3723v-1.3913h1.3723V32ZM17.8672 32h-1.3723v-1.3913h1.3723V32ZM16.4949 32h-1.3723v-1.3913h1.3723V32ZM15.1226 32h-1.3724v-1.3913h1.3724V32ZM2.77173 32H1.39941v-1.3913h1.37232V32Z"/><path d="M1.39942 32H.0270996v-1.3913H1.39942V32ZM42.5686 30.6087h-1.3723v-1.3913h1.3723v1.3913ZM35.707 30.6087h-1.3723v-1.3913h1.3723v1.3913ZM23.3562 30.6087h-1.3723v-1.3913h1.3723v1.3913ZM20.6118 30.6087h-1.3723v-1.3913h1.3723v1.3913ZM8.26099 30.6087H6.88867v-1.3913h1.37232v1.3913ZM1.39942 30.6087H.0270996v-1.3913H1.39942v1.3913Z"/><path d="M35.707 29.2174h-1.3723v-1.3913h1.3723v1.3913ZM34.3347 29.2174h-1.3723v-1.3913h1.3723v1.3913ZM24.7285 29.2174h-1.3723v-1.3913h1.3723v1.3913ZM23.3562 29.2174h-1.3723v-1.3913h1.3723v1.3913ZM20.6118 29.2174h-1.3723v-1.3913h1.3723v1.3913ZM19.2395 29.2174h-1.3723v-1.3913h1.3723v1.3913ZM9.63331 29.2174H8.26099v-1.3913h1.37232v1.3913ZM8.26099 29.2174H6.88867v-1.3913h1.37232v1.3913ZM35.707 27.8261h-1.3723v-1.3913h1.3723v1.3913ZM34.3347 27.8261h-1.3723v-1.3913h1.3723v1.3913Z"/><path d="M32.9624 27.8261h-1.3723v-1.3913h1.3723v1.3913ZM26.1008 27.8261h-1.3723v-1.3913h1.3723v1.3913ZM24.7285 27.8261h-1.3723v-1.3913h1.3723v1.3913ZM19.2395 27.8261h-1.3723v-1.3913h1.3723v1.3913ZM17.8672 27.8261h-1.3723v-1.3913h1.3723v1.3913ZM11.0056 27.8261H9.6333v-1.3913h1.3723v1.3913Z"/><path d="M9.63331 27.8261H8.26099v-1.3913h1.37232v1.3913ZM8.26099 27.8261H6.88867v-1.3913h1.37232v1.3913ZM34.3347 26.4348h-1.3723v-1.3913h1.3723v1.3913Z"/><path d="M32.9624 26.4348h-1.3723v-1.3913h1.3723v1.3913ZM27.4731 26.4348h-1.3723v-1.3913h1.3723v1.3913ZM26.1008 26.4348h-1.3723v-1.3913h1.3723v1.3913ZM17.8672 26.4348h-1.3723v-1.3913h1.3723v1.3913ZM16.4949 26.4348h-1.3723v-1.3913h1.3723v1.3913ZM11.0056 26.4348H9.6333v-1.3913h1.3723v1.3913Z"/><path d="M9.63331 26.4348H8.26099v-1.3913h1.37232v1.3913ZM39.824 25.0435h-1.3723v-1.3913h1.3723v1.3913Z"/><path d="M38.4517 25.0435h-1.3724v-1.3913h1.3724v1.3913Z"/><path d="M37.0794 25.0435H35.707v-1.3913h1.3724v1.3913ZM32.9624 25.0435h-1.3723v-1.3913h1.3723v1.3913ZM28.8455 25.0435h-1.3724v-1.3913h1.3724v1.3913ZM27.4731 25.0435h-1.3723v-1.3913h1.3723v1.3913ZM16.4949 25.0435h-1.3723v-1.3913h1.3723v1.3913ZM15.1226 25.0435h-1.3724v-1.3913h1.3724v1.3913ZM11.0056 25.0435H9.6333v-1.3913h1.3723v1.3913ZM6.88868 25.0435H5.51636v-1.3913h1.37232v1.3913Z"/><path d="M5.51636 25.0435H4.14404v-1.3913h1.37232v1.3913Z"/><path d="M4.14405 25.0435H2.77173v-1.3913h1.37232v1.3913ZM43.9409 23.6522h-1.3723v-1.3913h1.3723v1.3913ZM38.4517 23.6522h-1.3724v-1.3913h1.3724v1.3913Z"/><path d="M37.0794 23.6522H35.707v-1.3913h1.3724v1.3913ZM35.707 23.6522h-1.3723v-1.3913h1.3723v1.3913ZM30.2178 23.6522h-1.3723v-1.3913h1.3723v1.3913ZM28.8455 23.6522h-1.3724v-1.3913h1.3724v1.3913ZM15.1226 23.6522h-1.3724v-1.3913h1.3724v1.3913ZM13.7502 23.6522h-1.3723v-1.3913h1.3723v1.3913ZM8.26099 23.6522H6.88867v-1.3913h1.37232v1.3913Z"/><path d="M6.88868 23.6522H5.51636v-1.3913h1.37232v1.3913Z"/><path d="M5.51636 23.6522H4.14404v-1.3913h1.37232v1.3913ZM43.9409 22.2609h-1.3723v-1.3913h1.3723v1.3913Z"/><path d="M42.5686 22.2609h-1.3723v-1.3913h1.3723v1.3913ZM37.0794 22.2609H35.707v-1.3913h1.3724v1.3913ZM35.707 22.2609h-1.3723v-1.3913h1.3723v1.3913ZM34.3347 22.2609h-1.3723v-1.3913h1.3723v1.3913ZM31.5901 22.2609h-1.3723v-1.3913h1.3723v1.3913ZM30.2178 22.2609h-1.3723v-1.3913h1.3723v1.3913ZM21.9841 22.2609h-1.3723v-1.3913h1.3723v1.3913ZM13.7502 22.2609h-1.3723v-1.3913h1.3723v1.3913ZM12.3779 22.2609h-1.3723v-1.3913h1.3723v1.3913ZM9.63331 22.2609H8.26099v-1.3913h1.37232v1.3913ZM8.26099 22.2609H6.88867v-1.3913h1.37232v1.3913Z"/><path d="M6.88868 22.2609H5.51636v-1.3913h1.37232v1.3913ZM1.37232 20.8696H0v-1.3913h1.37232v1.3913ZM2.77173 20.8696H1.39941v-1.3913h1.37232v1.3913ZM1.37232 22.2609H0v-1.3913h1.37232v1.3913Z"/><path d="M1.37232 19.4783H0V18.087h1.37232v1.3913ZM43.9409 20.8696h-1.3723v-1.3913h1.3723v1.3913Z"/><path d="M42.5686 20.8696h-1.3723v-1.3913h1.3723v1.3913ZM41.1963 20.8696H39.824v-1.3913h1.3723v1.3913ZM23.3562 20.8696h-1.3723v-1.3913h1.3723v1.3913Z"/><path d="M21.9841 20.8696h-1.3723v-1.3913h1.3723v1.3913ZM20.6118 20.8696h-1.3723v-1.3913h1.3723v1.3913ZM43.9409 19.4783h-1.3723V18.087h1.3723v1.3913Z"/><path d="M42.5686 19.4783h-1.3723V18.087h1.3723v1.3913ZM37.0794 19.4783H35.707V18.087h1.3724v1.3913ZM35.707 19.4783h-1.3723V18.087h1.3723v1.3913ZM34.3347 19.4783h-1.3723V18.087h1.3723v1.3913ZM31.5901 19.4783h-1.3723V18.087h1.3723v1.3913ZM30.2178 19.4783h-1.3723V18.087h1.3723v1.3913ZM21.9841 19.4783h-1.3723V18.087h1.3723v1.3913ZM13.7502 19.4783h-1.3723V18.087h1.3723v1.3913ZM12.3779 19.4783h-1.3723V18.087h1.3723v1.3913ZM9.63331 19.4783H8.26099V18.087h1.37232v1.3913ZM8.26099 19.4783H6.88867V18.087h1.37232v1.3913Z"/><path d="M6.88868 19.4783H5.51636V18.087h1.37232v1.3913ZM43.9409 18.0869h-1.3723v-1.3913h1.3723v1.3913ZM38.4517 18.0869h-1.3724v-1.3913h1.3724v1.3913Z"/><path d="M37.0794 18.0869H35.707v-1.3913h1.3724v1.3913ZM35.707 18.0869h-1.3723v-1.3913h1.3723v1.3913ZM30.2178 18.0869h-1.3723v-1.3913h1.3723v1.3913ZM28.8455 18.0869h-1.3724v-1.3913h1.3724v1.3913ZM15.1226 18.0869h-1.3724v-1.3913h1.3724v1.3913ZM13.7502 18.0869h-1.3723v-1.3913h1.3723v1.3913ZM8.26099 18.0869H6.88867v-1.3913h1.37232v1.3913Z"/><path d="M6.88868 18.0869H5.51636v-1.3913h1.37232v1.3913Z"/><path d="M5.51636 18.0869H4.14404v-1.3913h1.37232v1.3913ZM39.824 16.6956h-1.3723v-1.3913h1.3723v1.3913Z"/><path d="M38.4517 16.6956h-1.3724v-1.3913h1.3724v1.3913Z"/><path d="M37.0794 16.6956H35.707v-1.3913h1.3724v1.3913ZM32.9624 16.6956h-1.3723v-1.3913h1.3723v1.3913ZM28.8455 16.6956h-1.3724v-1.3913h1.3724v1.3913ZM27.4731 16.6956h-1.3723v-1.3913h1.3723v1.3913ZM16.4949 16.6956h-1.3723v-1.3913h1.3723v1.3913ZM15.1226 16.6956h-1.3724v-1.3913h1.3724v1.3913ZM11.0056 16.6956H9.6333v-1.3913h1.3723v1.3913ZM6.88868 16.6956H5.51636v-1.3913h1.37232v1.3913Z"/><path d="M5.51636 16.6956H4.14404v-1.3913h1.37232v1.3913Z"/><path d="M4.14405 16.6956H2.77173v-1.3913h1.37232v1.3913ZM34.3347 15.3044h-1.3723V13.913h1.3723v1.3914Z"/><path d="M32.9624 15.3044h-1.3723V13.913h1.3723v1.3914ZM27.4731 15.3044h-1.3723V13.913h1.3723v1.3914ZM26.1008 15.3044h-1.3723V13.913h1.3723v1.3914ZM17.8672 15.3044h-1.3723V13.913h1.3723v1.3914ZM16.4949 15.3044h-1.3723V13.913h1.3723v1.3914ZM11.0056 15.3044H9.6333V13.913h1.3723v1.3914Z"/><path d="M9.63331 15.3044H8.26099V13.913h1.37232v1.3914ZM35.707 13.913h-1.3723v-1.3913h1.3723v1.3913ZM34.3347 13.913h-1.3723v-1.3913h1.3723v1.3913Z"/><path d="M32.9624 13.913h-1.3723v-1.3913h1.3723v1.3913ZM26.1008 13.913h-1.3723v-1.3913h1.3723v1.3913ZM24.7285 13.913h-1.3723v-1.3913h1.3723v1.3913ZM19.2395 13.913h-1.3723v-1.3913h1.3723v1.3913ZM17.8672 13.913h-1.3723v-1.3913h1.3723v1.3913ZM11.0056 13.913H9.6333v-1.3913h1.3723v1.3913Z"/><path d="M9.63331 13.913H8.26099v-1.3913h1.37232v1.3913ZM8.26099 13.913H6.88867v-1.3913h1.37232v1.3913ZM35.707 12.5217h-1.3723v-1.3913h1.3723v1.3913ZM34.3347 12.5217h-1.3723v-1.3913h1.3723v1.3913ZM24.7285 12.5217h-1.3723v-1.3913h1.3723v1.3913ZM23.3562 12.5217h-1.3723v-1.3913h1.3723v1.3913ZM20.6118 12.5217h-1.3723v-1.3913h1.3723v1.3913ZM19.2395 12.5217h-1.3723v-1.3913h1.3723v1.3913ZM9.63331 12.5217H8.26099v-1.3913h1.37232v1.3913ZM8.26099 12.5217H6.88867v-1.3913h1.37232v1.3913ZM35.707 11.1304h-1.3723V9.73913h1.3723v1.39127ZM23.3562 11.1304h-1.3723V9.73913h1.3723v1.39127ZM20.6118 11.1304h-1.3723V9.73913h1.3723v1.39127ZM8.26099 11.1304H6.88867V9.73913h1.37232v1.39127ZM42.5686 9.73911h-1.3723V8.3478h1.3723v1.39131ZM1.39942 9.73911H.0270996V8.3478H1.39942v1.39131Z"/><path d="M42.5686 8.34781h-1.3723V6.9565h1.3723v1.39131ZM41.1963 8.34781H39.824V6.9565h1.3723v1.39131ZM28.8455 8.34781h-1.3724V6.9565h1.3724v1.39131ZM27.4731 8.34781h-1.3723V6.9565h1.3723v1.39131ZM26.1008 8.34781h-1.3723V6.9565h1.3723v1.39131ZM17.8672 8.34781h-1.3723V6.9565h1.3723v1.39131ZM16.4949 8.34781h-1.3723V6.9565h1.3723v1.39131ZM15.1226 8.34781h-1.3724V6.9565h1.3724v1.39131ZM2.77173 8.34781H1.39941V6.9565h1.37232v1.39131Z"/><path d="M1.39942 8.34781H.0270996V6.9565H1.39942v1.39131ZM42.5686 6.95651h-1.3723v-1.3913h1.3723v1.3913ZM41.1963 6.95651H39.824v-1.3913h1.3723v1.3913ZM39.824 6.95651h-1.3723v-1.3913h1.3723v1.3913ZM30.2178 6.95651h-1.3723v-1.3913h1.3723v1.3913ZM28.8455 6.95651h-1.3724v-1.3913h1.3724v1.3913ZM27.4731 6.95651h-1.3723v-1.3913h1.3723v1.3913ZM23.3562 6.95651h-1.3723v-1.3913h1.3723v1.3913ZM20.6118 6.95651h-1.3723v-1.3913h1.3723v1.3913ZM16.4949 6.95651h-1.3723v-1.3913h1.3723v1.3913ZM15.1226 6.95651h-1.3724v-1.3913h1.3724v1.3913ZM13.7502 6.95651h-1.3723v-1.3913h1.3723v1.3913ZM4.14405 6.95651H2.77173v-1.3913h1.37232v1.3913Z"/><path d="M2.77173 6.95651H1.39941v-1.3913h1.37232v1.3913Z"/><path d="M1.39942 6.95651H.0270996v-1.3913H1.39942v1.3913ZM41.1963 5.56522H39.824V4.17391h1.3723v1.39131ZM39.824 5.56522h-1.3723V4.17391h1.3723v1.39131Z"/><path d="M38.4517 5.56522h-1.3724V4.17391h1.3724v1.39131ZM31.5901 5.56522h-1.3723V4.17391h1.3723v1.39131ZM30.2178 5.56522h-1.3723V4.17391h1.3723v1.39131ZM28.8455 5.56522h-1.3724V4.17391h1.3724v1.39131ZM24.7285 5.56522h-1.3723V4.17391h1.3723v1.39131ZM23.3562 5.56522h-1.3723V4.17391h1.3723v1.39131ZM20.6118 5.56522h-1.3723V4.17391h1.3723v1.39131ZM19.2395 5.56522h-1.3723V4.17391h1.3723v1.39131ZM15.1226 5.56522h-1.3724V4.17391h1.3724v1.39131ZM13.7502 5.56522h-1.3723V4.17391h1.3723v1.39131ZM12.3779 5.56522h-1.3723V4.17391h1.3723v1.39131ZM5.51636 5.56522H4.14404V4.17391h1.37232v1.39131Z"/><path d="M4.14405 5.56522H2.77173V4.17391h1.37232v1.39131ZM2.77173 5.56522H1.39941V4.17391h1.37232v1.39131ZM39.824 4.17389h-1.3723v-1.3913h1.3723v1.3913Z"/><path d="M38.4517 4.17389h-1.3724v-1.3913h1.3724v1.3913Z"/><path d="M37.0794 4.17389H35.707v-1.3913h1.3724v1.3913ZM26.1008 4.17389h-1.3723v-1.3913h1.3723v1.3913ZM24.7285 4.17389h-1.3723v-1.3913h1.3723v1.3913ZM23.3562 4.17389h-1.3723v-1.3913h1.3723v1.3913ZM20.6118 4.17389h-1.3723v-1.3913h1.3723v1.3913ZM19.2395 4.17389h-1.3723v-1.3913h1.3723v1.3913ZM17.8672 4.17389h-1.3723v-1.3913h1.3723v1.3913ZM6.88868 4.17389H5.51636v-1.3913h1.37232v1.3913Z"/><path d="M5.51636 4.17389H4.14404v-1.3913h1.37232v1.3913Z"/><path d="M4.14405 4.17389H2.77173v-1.3913h1.37232v1.3913ZM43.9409 2.78259h-1.3723v-1.3913h1.3723v1.3913ZM38.4517 2.78259h-1.3724v-1.3913h1.3724v1.3913Z"/><path d="M37.0794 2.78259H35.707v-1.3913h1.3724v1.3913ZM35.707 2.78259h-1.3723v-1.3913h1.3723v1.3913ZM26.1008 2.78259h-1.3723v-1.3913h1.3723v1.3913ZM24.7285 2.78259h-1.3723v-1.3913h1.3723v1.3913ZM19.2395 2.78259h-1.3723v-1.3913h1.3723v1.3913ZM17.8672 2.78259h-1.3723v-1.3913h1.3723v1.3913ZM8.26099 2.78259H6.88867v-1.3913h1.37232v1.3913Z"/><path d="M6.88868 2.78259H5.51636v-1.3913h1.37232v1.3913Z"/><path d="M5.51636 2.78259H4.14404v-1.3913h1.37232v1.3913ZM43.9409 1.3913h-1.3723V-.00000775h1.3723V1.3913Z"/><path d="M42.5686 1.3913h-1.3723V-.00000775h1.3723V1.3913ZM37.0794 1.3913H35.707V-.00000775h1.3724V1.3913ZM35.707 1.3913h-1.3723V-.00000775h1.3723V1.3913ZM34.3347 1.3913h-1.3723V-.00000775h1.3723V1.3913ZM26.1008 1.3913h-1.3723V-.00000775h1.3723V1.3913ZM17.8672 1.3913h-1.3723V-.00000775h1.3723V1.3913ZM9.63331 1.3913H8.26099V-.00000775h1.37232V1.3913ZM8.26099 1.3913H6.88867V-.00000775h1.37232V1.3913Z"/><path d="M6.88868 1.3913H5.51636V-.00000775h1.37232V1.3913ZM1.39942 1.3913H.0270996V-.00000775H1.39942V1.3913Z"/></g><defs><clipPath id="a"><path fill="#fff" d="M0 0h44v39H0z"/></clipPath></defs></svg>